<svg xmlns="http://www.w3.org/2000/svg" xmlns:xlink="http://www.w3.org/1999/xlink" width="1080" zoomAndPan="magnify" viewBox="0 0 810 809.999993" height="1080" preserveAspectRatio="xMidYMid meet" version="1.0"><defs><clipPath id="f8d2a4258e"><path d="M 202.5 202.5 L 607.5 202.5 L 607.5 607.5 L 202.5 607.5 Z M 202.5 202.5 " clip-rule="nonzero"/></clipPath></defs><g clip-path="url(#f8d2a4258e)"><path fill="#fcfcfc" d="M 202.5 0 L 607.5 0 L 607.5 810 L 202.5 810 Z M 202.5 0 " fill-opacity="1" fill-rule="nonzero"/></g><path fill="#a88e7b" d="M 459.167969 274.386719 L 464.230469 274.386719 L 473.851562 275.398438 L 481.949219 277.425781 L 491.570312 280.96875 L 501.1875 287.042969 L 506.25 291.09375 L 513.84375 298.6875 L 518.398438 304.761719 L 522.449219 312.863281 L 523.96875 316.914062 L 529.539062 318.429688 L 533.082031 320.960938 L 535.613281 325.011719 L 536.117188 330.074219 L 534.601562 335.136719 L 531.054688 339.1875 L 528.019531 341.210938 L 527.007812 353.363281 L 524.980469 364.5 L 522.957031 372.601562 L 519.414062 384.242188 L 514.351562 397.914062 L 513.84375 398.925781 L 521.945312 394.875 L 527.511719 391.332031 L 532.574219 386.773438 L 537.132812 380.699219 L 540.675781 373.105469 L 542.699219 366.523438 L 543.710938 360.957031 L 545.738281 362.980469 L 549.28125 370.574219 L 552.320312 380.195312 L 554.34375 391.835938 L 554.851562 396.898438 L 554.851562 411.074219 L 553.332031 422.71875 L 550.800781 433.351562 L 547.257812 442.96875 L 542.195312 454.105469 L 534.601562 466.257812 L 529.03125 473.34375 L 522.957031 480.429688 L 515.363281 488.023438 L 509.792969 492.582031 L 500.679688 499.667969 L 488.023438 507.261719 L 479.925781 511.3125 L 469.800781 515.867188 L 454.613281 520.929688 L 440.945312 523.96875 L 425.757812 525.992188 L 418.164062 526.5 L 403.480469 526.5 L 390.320312 525.488281 L 377.15625 523.460938 L 363.992188 520.425781 L 353.363281 517.386719 L 339.695312 511.820312 L 328.050781 506.25 L 319.445312 501.1875 L 313.367188 497.136719 L 307.292969 492.582031 L 301.726562 488.023438 L 296.664062 483.46875 L 290.082031 476.886719 L 285.523438 471.320312 L 279.957031 463.726562 L 275.398438 456.132812 L 270.84375 446.511719 L 266.792969 434.363281 L 264.769531 423.226562 L 264.261719 417.65625 L 264.261719 409.050781 L 265.273438 399.429688 L 267.300781 389.8125 L 269.832031 381.207031 L 274.386719 370.574219 L 278.4375 363.488281 L 284.511719 354.882812 L 286.03125 352.855469 L 287.042969 353.363281 L 284.007812 362.476562 L 282.488281 370.574219 L 281.980469 376.648438 L 281.980469 381.710938 L 283.5 392.34375 L 286.03125 399.9375 L 290.585938 408.542969 L 296.15625 415.125 L 301.726562 419.679688 L 308.8125 423.730469 L 317.925781 426.769531 L 322.480469 427.273438 L 325.011719 419.175781 L 329.0625 413.101562 L 332.605469 409.050781 L 339.1875 404.492188 L 345.261719 401.960938 L 347.289062 401.457031 L 352.351562 401.457031 L 347.289062 414.617188 L 345.261719 422.210938 L 344.757812 429.300781 L 345.769531 436.894531 L 348.804688 444.992188 L 351.84375 450.054688 L 356.398438 455.117188 L 361.460938 459.167969 L 369.054688 462.710938 L 372.09375 463.726562 L 375.636719 459.675781 L 378.675781 457.648438 L 381.710938 457.144531 L 382.726562 454.613281 L 385.761719 450.054688 L 390.320312 444.992188 L 394.367188 441.449219 L 399.429688 438.414062 L 406.011719 435.882812 L 411.074219 434.867188 L 422.71875 434.867188 L 427.78125 423.730469 L 428.792969 421.199219 L 421.199219 414.113281 L 417.65625 409.554688 L 415.632812 404.492188 L 415.632812 401.457031 L 413.101562 400.445312 L 405 395.886719 L 396.394531 391.835938 L 382.726562 387.28125 L 374.625 385.761719 L 369.5625 388.800781 L 367.03125 389.8125 L 363.992188 390.320312 L 356.398438 390.320312 L 354.882812 386.269531 L 354.375 383.738281 L 354.882812 377.15625 L 357.414062 370.574219 L 360.957031 366.019531 L 365.511719 361.96875 L 369.5625 359.945312 L 373.613281 351.84375 L 378.167969 345.769531 L 382.726562 341.210938 L 389.8125 336.65625 L 395.886719 334.125 L 397.40625 334.125 L 396.898438 332.605469 L 397.40625 324.507812 L 398.417969 320.960938 L 387.28125 321.976562 L 383.230469 322.480469 L 383.230469 320.457031 L 387.28125 318.9375 L 391.332031 318.429688 L 399.429688 318.429688 L 400.949219 313.875 L 401.457031 312.863281 L 396.898438 311.851562 L 392.851562 310.835938 L 387.28125 310.332031 L 385.257812 309.320312 L 385.761719 307.800781 L 392.34375 307.800781 L 399.9375 309.824219 L 408.039062 313.875 L 411.074219 315.898438 L 410.570312 318.429688 L 409.554688 318.429688 L 408.542969 321.976562 L 406.011719 323.492188 L 400.949219 324.507812 L 398.417969 326.023438 L 397.914062 332.101562 L 397.914062 333.617188 L 402.976562 332.605469 L 413.605469 332.605469 L 421.707031 334.632812 L 428.289062 338.175781 L 432.84375 341.71875 L 436.894531 345.261719 L 440.4375 350.324219 L 443.980469 357.414062 L 445.5 362.476562 L 446.007812 366.019531 L 447.523438 366.019531 L 449.550781 372.601562 L 449.550781 381.207031 L 447.523438 388.292969 L 447.019531 389.304688 L 452.585938 390.320312 L 455.625 390.824219 L 467.773438 390.824219 L 468.789062 388.800781 L 473.851562 384.242188 L 478.914062 381.207031 L 486.507812 378.675781 L 497.136719 376.144531 L 503.210938 373.613281 L 508.273438 370.574219 L 511.820312 367.03125 L 513.84375 362.476562 L 513.84375 356.398438 L 510.804688 350.832031 L 507.261719 347.792969 L 500.175781 344.25 L 493.59375 342.730469 L 481.445312 340.707031 L 476.382812 338.679688 L 471.320312 334.632812 L 466.761719 329.570312 L 460.6875 325.011719 L 459.167969 324.507812 L 459.675781 325.519531 L 459.675781 329.570312 L 456.636719 333.113281 L 452.082031 335.136719 L 450.054688 335.644531 L 444.488281 335.644531 L 443.476562 335.136719 L 443.980469 340.199219 L 446.007812 343.742188 L 448.539062 345.261719 L 450.5625 345.769531 L 456.132812 345.769531 L 459.675781 344.757812 L 460.6875 346.78125 L 458.15625 348.804688 L 455.625 349.820312 L 450.5625 349.820312 L 446.511719 348.300781 L 442.460938 344.757812 L 440.4375 340.707031 L 440.4375 335.136719 L 440.945312 333.617188 L 438.917969 332.605469 L 435.882812 329.0625 L 434.363281 325.519531 L 434.363281 319.949219 L 436.386719 317.925781 L 425.25 317.925781 L 419.679688 315.898438 L 414.617188 311.851562 L 410.0625 308.8125 L 406.011719 307.292969 L 408.542969 302.738281 L 410.570312 299.699219 L 411.582031 299.699219 L 412.59375 296.664062 L 411.074219 292.105469 L 411.074219 288.5625 L 413.101562 283.5 L 417.148438 279.957031 L 419.679688 278.945312 L 425.25 278.945312 L 429.300781 281.476562 L 430.820312 282.488281 L 437.90625 278.945312 L 447.523438 275.90625 L 453.601562 274.894531 Z M 459.167969 274.386719 " fill-opacity="1" fill-rule="nonzero"/><path fill="#78b2a7" d="M 286.03125 352.855469 L 287.042969 353.363281 L 284.007812 362.476562 L 282.488281 370.574219 L 281.980469 376.648438 L 281.980469 381.710938 L 283.5 392.34375 L 286.03125 399.9375 L 290.585938 408.542969 L 296.15625 415.125 L 301.726562 419.679688 L 308.8125 423.730469 L 317.925781 426.769531 L 322.480469 427.78125 L 322.480469 432.84375 L 320.457031 434.363281 L 319.445312 434.363281 L 318.9375 436.386719 L 315.394531 437.398438 L 313.367188 439.425781 L 312.355469 442.460938 L 312.355469 449.042969 L 314.886719 457.648438 L 319.949219 466.761719 L 326.023438 473.34375 L 331.085938 476.886719 L 334.632812 478.40625 L 340.199219 478.914062 L 344.25 477.394531 L 348.300781 477.898438 L 353.363281 479.925781 L 361.460938 483.976562 L 365.007812 485.492188 L 366.523438 492.582031 L 369.5625 497.136719 L 374.625 500.175781 L 378.675781 501.1875 L 384.242188 500.679688 L 391.332031 497.136719 L 396.394531 492.582031 L 397.40625 491.570312 L 409.050781 491.0625 L 421.199219 489.039062 L 431.324219 486 L 439.425781 482.960938 L 451.070312 476.886719 L 459.167969 471.824219 L 465.242188 467.269531 L 470.8125 462.710938 L 476.886719 457.144531 L 482.457031 451.574219 L 487.011719 446.007812 L 492.074219 439.425781 L 497.644531 430.820312 L 502.707031 421.707031 L 509.792969 407.53125 L 512.832031 399.9375 L 514.855469 398.417969 L 522.957031 394.367188 L 529.539062 389.8125 L 533.082031 386.269531 L 537.636719 379.6875 L 540.675781 373.105469 L 542.699219 366.523438 L 543.710938 360.957031 L 545.738281 362.980469 L 549.28125 370.574219 L 552.320312 380.195312 L 554.34375 391.835938 L 554.851562 396.898438 L 554.851562 411.074219 L 553.332031 422.71875 L 550.800781 433.351562 L 547.257812 442.96875 L 542.195312 454.105469 L 534.601562 466.257812 L 529.03125 473.34375 L 522.957031 480.429688 L 515.363281 488.023438 L 509.792969 492.582031 L 500.679688 499.667969 L 488.023438 507.261719 L 479.925781 511.3125 L 469.800781 515.867188 L 454.613281 520.929688 L 440.945312 523.96875 L 425.757812 525.992188 L 418.164062 526.5 L 403.480469 526.5 L 390.320312 525.488281 L 377.15625 523.460938 L 363.992188 520.425781 L 353.363281 517.386719 L 339.695312 511.820312 L 328.050781 506.25 L 319.445312 501.1875 L 313.367188 497.136719 L 307.292969 492.582031 L 301.726562 488.023438 L 296.664062 483.46875 L 290.082031 476.886719 L 285.523438 471.320312 L 279.957031 463.726562 L 275.398438 456.132812 L 270.84375 446.511719 L 266.792969 434.363281 L 264.769531 423.226562 L 264.261719 417.65625 L 264.261719 409.050781 L 265.273438 399.429688 L 267.300781 389.8125 L 269.832031 381.207031 L 274.386719 370.574219 L 278.4375 363.488281 L 284.511719 354.882812 Z M 286.03125 352.855469 " fill-opacity="1" fill-rule="nonzero"/><path fill="#816759" d="M 524.476562 360.449219 L 524.980469 360.449219 L 524.980469 364.5 L 522.957031 372.601562 L 519.414062 384.242188 L 513.84375 399.429688 L 511.820312 403.480469 L 508.273438 411.582031 L 501.1875 425.757812 L 495.617188 434.867188 L 489.542969 443.476562 L 483.976562 450.054688 L 479.417969 455.117188 L 472.835938 461.699219 L 467.269531 466.257812 L 460.6875 471.320312 L 452.585938 476.382812 L 444.488281 480.9375 L 435.882812 484.988281 L 423.226562 489.039062 L 413.101562 491.0625 L 409.050781 491.570312 L 397.40625 492.074219 L 392.851562 496.632812 L 387.789062 499.667969 L 384.242188 501.1875 L 378.675781 501.695312 L 373.613281 500.175781 L 369.054688 497.136719 L 366.019531 492.582031 L 365.007812 489.039062 L 365.007812 485.492188 L 360.449219 483.976562 L 352.351562 479.925781 L 348.300781 478.40625 L 344.25 477.898438 L 340.199219 479.417969 L 334.632812 478.914062 L 328.554688 475.875 L 323.492188 471.320312 L 319.445312 466.761719 L 314.382812 457.648438 L 311.851562 449.042969 L 311.851562 442.460938 L 313.367188 438.917969 L 316.40625 436.386719 L 318.9375 436.386719 L 319.445312 434.363281 L 321.976562 432.84375 L 322.988281 425.25 L 325.519531 418.164062 L 330.582031 411.074219 L 335.136719 407.023438 L 342.226562 402.976562 L 347.289062 401.457031 L 352.351562 401.457031 L 347.289062 414.617188 L 345.261719 422.210938 L 344.757812 429.300781 L 345.769531 436.894531 L 348.804688 444.992188 L 351.84375 450.054688 L 356.398438 455.117188 L 361.460938 459.167969 L 369.054688 462.710938 L 372.09375 463.726562 L 375.636719 459.675781 L 378.675781 457.648438 L 381.710938 457.144531 L 382.726562 454.613281 L 385.761719 450.054688 L 390.320312 444.992188 L 394.367188 441.449219 L 399.429688 438.414062 L 406.011719 435.882812 L 411.074219 434.867188 L 422.71875 434.867188 L 427.78125 423.730469 L 428.792969 421.199219 L 421.199219 414.113281 L 417.65625 409.554688 L 415.632812 404.492188 L 415.632812 397.914062 L 417.65625 392.851562 L 420.695312 388.800781 L 426.261719 390.320312 L 429.804688 393.355469 L 429.804688 393.863281 L 426.261719 393.355469 L 424.742188 392.851562 L 419.175781 392.851562 L 418.667969 393.863281 L 418.667969 397.40625 L 420.1875 398.925781 L 426.261719 401.960938 L 427.78125 403.988281 L 425.25 403.480469 L 419.175781 401.960938 L 421.707031 407.023438 L 428.289062 413.101562 L 436.386719 418.164062 L 441.449219 420.695312 L 442.460938 420.1875 L 443.980469 418.667969 L 446.511719 419.175781 L 458.664062 419.679688 L 463.726562 419.679688 L 472.332031 417.148438 L 476.382812 414.617188 L 481.949219 411.582031 L 489.542969 403.988281 L 492.074219 400.949219 L 495.113281 398.417969 L 498.148438 393.863281 L 501.695312 390.320312 L 502.707031 390.320312 L 503.71875 388.292969 L 505.742188 385.761719 L 507.769531 383.738281 L 508.78125 383.738281 L 510.300781 377.664062 L 514.351562 370.574219 L 516.882812 368.042969 L 517.894531 368.042969 L 520.929688 361.96875 Z M 524.476562 360.449219 " fill-opacity="1" fill-rule="nonzero"/><path fill="#92bfb5" d="M 543.710938 360.957031 L 545.738281 362.980469 L 549.28125 370.574219 L 552.320312 380.195312 L 554.34375 391.835938 L 554.851562 396.898438 L 554.851562 411.074219 L 553.332031 422.71875 L 550.800781 433.351562 L 547.257812 442.96875 L 542.195312 454.105469 L 534.601562 466.257812 L 532.070312 469.292969 L 530.042969 470.304688 L 525.992188 474.863281 L 520.425781 475.367188 L 515.867188 477.898438 L 510.804688 480.9375 L 505.742188 482.457031 L 504.226562 482.457031 L 503.71875 484.480469 L 497.136719 486 L 493.085938 487.519531 L 486.507812 487.519531 L 484.988281 492.074219 L 482.960938 492.582031 L 480.429688 493.085938 L 472.835938 497.644531 L 461.195312 502.707031 L 449.550781 505.742188 L 440.945312 506.757812 L 437.90625 506.757812 L 433.351562 504.730469 L 428.792969 501.695312 L 427.273438 499.667969 L 448.539062 489.039062 L 457.648438 483.46875 L 467.269531 476.382812 L 472.835938 471.824219 L 479.925781 465.75 L 482.960938 463.21875 L 486.507812 459.167969 L 492.074219 452.585938 L 496.125 447.019531 L 493.085938 446.007812 L 490.554688 445.5 L 487.011719 447.523438 L 487.519531 445.5 L 494.101562 436.386719 L 498.148438 429.804688 L 502.707031 421.707031 L 509.792969 407.53125 L 512.832031 399.9375 L 514.855469 398.417969 L 522.957031 394.367188 L 529.539062 389.8125 L 533.082031 386.269531 L 537.636719 379.6875 L 540.675781 373.105469 L 542.699219 366.523438 Z M 543.710938 360.957031 " fill-opacity="1" fill-rule="nonzero"/><path fill="#92bfb5" d="M 385.761719 307.800781 L 392.34375 307.800781 L 399.9375 309.824219 L 408.039062 313.875 L 411.074219 315.898438 L 410.570312 318.429688 L 409.554688 318.429688 L 408.542969 321.976562 L 406.011719 323.492188 L 400.949219 324.507812 L 398.417969 326.023438 L 397.914062 332.101562 L 397.914062 333.617188 L 402.976562 332.605469 L 413.605469 332.605469 L 421.707031 334.632812 L 428.289062 338.175781 L 432.84375 341.71875 L 436.894531 345.261719 L 440.4375 350.324219 L 443.980469 357.414062 L 445.5 362.476562 L 446.007812 369.5625 L 445.5 376.648438 L 443.476562 384.242188 L 442.460938 387.28125 L 438.414062 386.773438 L 433.351562 385.761719 L 428.289062 385.761719 L 422.71875 387.789062 L 419.679688 390.320312 L 416.644531 395.886719 L 415.632812 401.457031 L 413.101562 400.445312 L 405 395.886719 L 396.394531 391.835938 L 382.726562 387.28125 L 374.625 385.761719 L 369.5625 388.800781 L 367.03125 389.8125 L 363.992188 390.320312 L 356.398438 390.320312 L 354.882812 386.269531 L 354.375 383.738281 L 354.882812 377.15625 L 357.414062 370.574219 L 360.957031 366.019531 L 365.511719 361.96875 L 369.5625 359.945312 L 373.613281 351.84375 L 378.167969 345.769531 L 382.726562 341.210938 L 389.8125 336.65625 L 395.886719 334.125 L 397.40625 334.125 L 396.898438 332.605469 L 397.40625 324.507812 L 398.417969 320.960938 L 387.28125 321.976562 L 383.230469 322.480469 L 383.230469 320.457031 L 387.28125 318.9375 L 391.332031 318.429688 L 399.429688 318.429688 L 400.949219 313.875 L 401.457031 312.863281 L 396.898438 311.851562 L 392.851562 310.835938 L 387.28125 310.332031 L 385.257812 309.320312 Z M 385.761719 307.800781 " fill-opacity="1" fill-rule="nonzero"/><path fill="#92bfb5" d="M 286.03125 352.855469 L 287.042969 353.363281 L 284.007812 362.476562 L 282.488281 370.574219 L 281.980469 376.648438 L 281.980469 381.710938 L 283.5 392.34375 L 286.03125 399.9375 L 290.585938 408.542969 L 296.15625 415.125 L 301.726562 419.679688 L 308.8125 423.730469 L 317.925781 426.769531 L 322.480469 427.78125 L 322.480469 432.84375 L 320.457031 434.363281 L 319.445312 434.363281 L 318.9375 436.386719 L 315.394531 437.398438 L 313.367188 439.425781 L 312.355469 442.460938 L 312.355469 449.042969 L 314.886719 457.648438 L 318.429688 464.230469 L 318.9375 468.789062 L 321.46875 475.367188 L 326.023438 481.445312 L 330.074219 485.492188 L 337.164062 489.542969 L 343.238281 491.570312 L 349.3125 493.085938 L 351.335938 494.605469 L 349.820312 497.644531 L 345.769531 497.644531 L 343.238281 496.632812 L 338.175781 496.632812 L 335.136719 499.164062 L 333.113281 501.1875 L 327.039062 503.71875 L 322.988281 502.707031 L 320.457031 501.695312 L 313.367188 497.136719 L 307.292969 492.582031 L 301.726562 488.023438 L 296.664062 483.46875 L 290.082031 476.886719 L 285.523438 471.320312 L 279.957031 463.726562 L 275.398438 456.132812 L 270.84375 446.511719 L 266.792969 434.363281 L 264.769531 423.226562 L 264.261719 417.65625 L 264.261719 409.050781 L 265.273438 399.429688 L 267.300781 389.8125 L 269.832031 381.207031 L 274.386719 370.574219 L 278.4375 363.488281 L 284.511719 354.882812 Z M 286.03125 352.855469 " fill-opacity="1" fill-rule="nonzero"/><path fill="#fef1e2" d="M 374.625 385.257812 L 384.75 387.28125 L 396.394531 391.332031 L 409.050781 397.40625 L 415.632812 401.457031 L 417.148438 407.53125 L 420.1875 412.59375 L 425.757812 418.164062 L 429.300781 420.695312 L 426.261719 428.289062 L 422.71875 435.375 L 411.074219 435.375 L 402.976562 437.398438 L 395.886719 440.945312 L 390.824219 444.992188 L 387.28125 448.539062 L 383.738281 453.601562 L 381.710938 457.144531 L 377.15625 459.167969 L 373.105469 462.710938 L 371.585938 464.230469 L 363.488281 460.6875 L 357.917969 457.144531 L 352.351562 451.574219 L 348.804688 446.007812 L 345.769531 438.414062 L 344.757812 434.363281 L 344.25 427.273438 L 345.261719 419.679688 L 347.792969 411.582031 L 349.820312 406.519531 L 350.832031 406.519531 L 352.351562 402.976562 L 353.867188 396.394531 L 355.894531 392.34375 L 356.398438 390.320312 L 367.03125 389.304688 L 374.117188 385.761719 Z M 374.625 385.257812 " fill-opacity="1" fill-rule="nonzero"/><path fill="#fdf1e1" d="M 405 307.292969 L 408.542969 307.800781 L 412.59375 309.824219 L 419.679688 315.394531 L 425.25 317.417969 L 436.894531 317.417969 L 434.867188 319.949219 L 434.867188 325.519531 L 437.398438 330.582031 L 440.945312 333.617188 L 440.945312 340.707031 L 443.476562 345.261719 L 447.523438 348.300781 L 450.5625 349.3125 L 455.625 349.3125 L 459.675781 347.289062 L 459.675781 345.261719 L 456.132812 346.273438 L 450.5625 346.273438 L 447.019531 344.757812 L 444.488281 342.226562 L 443.476562 340.199219 L 443.476562 335.136719 L 450.054688 335.136719 L 455.625 333.113281 L 458.664062 330.582031 L 459.167969 329.570312 L 459.167969 325.519531 L 458.664062 323.492188 L 464.230469 327.039062 L 468.789062 331.085938 L 472.332031 335.136719 L 477.394531 338.679688 L 483.46875 340.707031 L 498.65625 343.238281 L 504.730469 345.769531 L 509.792969 349.3125 L 512.324219 352.351562 L 514.351562 356.398438 L 514.351562 362.476562 L 511.820312 367.539062 L 507.769531 371.585938 L 500.175781 375.636719 L 491.570312 378.167969 L 482.960938 380.195312 L 476.886719 382.726562 L 470.304688 387.789062 L 467.773438 390.824219 L 466.257812 391.332031 L 455.625 391.332031 L 447.019531 389.304688 L 449.042969 381.207031 L 449.042969 372.601562 L 447.019531 366.019531 L 445.5 366.523438 L 444.488281 360.957031 L 441.957031 353.867188 L 437.90625 347.289062 L 436.894531 345.261719 L 434.867188 344.25 L 431.324219 340.707031 L 427.78125 338.175781 L 420.1875 334.632812 L 413.605469 333.113281 L 402.976562 333.113281 L 397.914062 333.617188 L 397.40625 329.0625 L 398.417969 325.519531 L 401.960938 323.492188 L 407.53125 322.480469 L 409.554688 318.429688 L 410.570312 317.925781 L 410.570312 315.898438 L 402.46875 311.34375 Z M 405 307.292969 " fill-opacity="1" fill-rule="nonzero"/><path fill="#8e7564" d="M 510.300781 295.648438 L 513.84375 298.6875 L 518.398438 304.761719 L 522.449219 312.863281 L 523.96875 316.914062 L 529.539062 318.429688 L 533.082031 320.960938 L 535.613281 325.011719 L 536.117188 330.074219 L 534.601562 335.136719 L 531.054688 339.1875 L 528.019531 341.210938 L 527.007812 353.363281 L 525.488281 362.476562 L 524.476562 360.957031 L 520.929688 362.476562 L 518.90625 366.523438 L 516.375 369.054688 L 513.84375 372.09375 L 510.300781 379.179688 L 508.78125 383.738281 L 506.757812 385.761719 L 505.742188 385.761719 L 504.730469 387.789062 L 502.707031 390.320312 L 498.65625 393.863281 L 494.605469 399.429688 L 491.570312 401.960938 L 488.023438 406.519531 L 483.976562 410.0625 L 480.429688 413.101562 L 472.835938 417.148438 L 468.789062 418.667969 L 463.726562 420.1875 L 457.648438 420.1875 L 446.511719 419.679688 L 442.96875 419.175781 L 442.96875 421.199219 L 440.4375 420.695312 L 432.84375 416.644531 L 427.273438 412.59375 L 420.695312 406.519531 L 419.175781 403.480469 L 419.175781 401.960938 L 423.730469 402.46875 L 427.273438 403.480469 L 422.71875 400.445312 L 418.667969 398.417969 L 418.164062 397.40625 L 418.164062 393.863281 L 419.175781 392.34375 L 424.742188 392.34375 L 427.273438 393.355469 L 429.300781 393.355469 L 426.261719 390.824219 L 421.199219 388.800781 L 423.730469 386.773438 L 428.289062 385.257812 L 433.351562 385.257812 L 442.460938 387.28125 L 442.96875 384.242188 L 444.992188 376.648438 L 445.5 369.5625 L 445.5 366.523438 L 447.019531 365.511719 L 449.042969 370.070312 L 449.550781 372.601562 L 449.550781 381.207031 L 447.523438 388.292969 L 447.019531 389.304688 L 452.585938 390.320312 L 455.625 390.824219 L 467.773438 390.824219 L 468.789062 388.800781 L 473.851562 384.242188 L 478.914062 381.207031 L 486.507812 378.675781 L 497.136719 376.144531 L 503.210938 373.613281 L 508.273438 370.574219 L 511.820312 367.03125 L 513.84375 362.476562 L 513.84375 356.398438 L 510.804688 350.832031 L 507.261719 347.792969 L 499.667969 343.742188 L 499.667969 343.238281 L 504.226562 342.730469 L 504.226562 341.71875 L 505.742188 340.707031 L 507.769531 329.0625 L 509.792969 321.46875 L 511.820312 317.417969 L 512.832031 309.320312 L 515.363281 307.800781 L 517.386719 307.292969 L 516.375 304.257812 L 512.832031 300.207031 L 510.300781 296.664062 Z M 510.300781 295.648438 " fill-opacity="1" fill-rule="nonzero"/><path fill="#58453a" d="M 347.289062 401.457031 L 352.351562 401.457031 L 347.289062 414.617188 L 345.261719 422.210938 L 344.757812 429.300781 L 345.769531 436.894531 L 348.804688 444.992188 L 351.84375 450.054688 L 356.398438 455.117188 L 361.460938 459.167969 L 369.054688 462.710938 L 372.09375 463.726562 L 375.636719 459.675781 L 378.675781 457.648438 L 382.21875 456.636719 L 385.761719 456.636719 L 388.800781 458.664062 L 392.34375 458.664062 L 396.394531 460.6875 L 398.417969 463.21875 L 400.949219 468.28125 L 400.949219 469.800781 L 400.445312 469.292969 L 397.40625 469.292969 L 392.851562 472.835938 L 389.304688 476.886719 L 388.292969 476.382812 L 388.800781 473.34375 L 390.320312 469.800781 L 389.8125 467.269531 L 390.824219 465.75 L 390.824219 462.207031 L 390.320312 460.6875 L 387.789062 462.207031 L 383.738281 468.789062 L 382.726562 471.320312 L 383.738281 471.320312 L 385.761719 476.886719 L 386.269531 486 L 384.242188 491.570312 L 387.789062 492.582031 L 390.320312 496.632812 L 391.332031 496.632812 L 390.824219 498.148438 L 384.242188 501.1875 L 378.675781 501.695312 L 373.613281 500.175781 L 369.054688 497.136719 L 366.019531 492.582031 L 365.007812 489.039062 L 365.007812 485.492188 L 360.449219 483.976562 L 352.351562 479.925781 L 348.300781 478.40625 L 344.25 477.898438 L 340.199219 479.417969 L 334.632812 478.914062 L 328.554688 475.875 L 323.492188 471.320312 L 319.445312 466.761719 L 314.382812 457.648438 L 311.851562 449.042969 L 311.851562 442.460938 L 313.367188 438.917969 L 316.40625 436.386719 L 318.9375 436.386719 L 319.445312 434.363281 L 321.976562 432.84375 L 322.988281 425.25 L 325.519531 418.164062 L 330.582031 411.074219 L 335.136719 407.023438 L 342.226562 402.976562 Z M 347.289062 401.457031 " fill-opacity="1" fill-rule="nonzero"/><path fill="#79b2a7" d="M 315.898438 254.136719 L 326.53125 254.136719 L 334.125 256.164062 L 339.695312 259.199219 L 345.261719 263.757812 L 349.3125 269.324219 L 351.84375 274.386719 L 353.363281 280.460938 L 353.363281 290.082031 L 351.335938 297.675781 L 349.3125 302.230469 L 351.335938 307.292969 L 353.867188 311.851562 L 353.867188 314.886719 L 352.351562 316.40625 L 346.273438 316.40625 L 339.695312 314.382812 L 336.65625 313.367188 L 331.085938 315.898438 L 326.023438 316.914062 L 317.417969 316.914062 L 309.320312 314.886719 L 302.738281 311.34375 L 297.675781 306.789062 L 294.132812 302.738281 L 291.09375 296.664062 L 289.574219 291.601562 L 289.574219 279.957031 L 292.105469 272.363281 L 295.144531 267.300781 L 299.699219 262.238281 L 304.257812 258.695312 L 310.332031 255.65625 Z M 315.898438 254.136719 " fill-opacity="1" fill-rule="nonzero"/><path fill="#6aa59b" d="M 490.554688 444.992188 L 493.085938 445.5 L 496.632812 446.511719 L 494.605469 450.054688 L 489.039062 456.636719 L 484.480469 461.699219 L 481.949219 464.738281 L 476.382812 469.292969 L 471.320312 473.851562 L 463.21875 479.925781 L 454.613281 486 L 443.476562 492.074219 L 428.289062 499.667969 L 418.667969 502.707031 L 415.125 504.226562 L 408.542969 506.25 L 399.9375 509.289062 L 392.851562 510.804688 L 380.195312 510.804688 L 372.09375 508.273438 L 367.539062 505.742188 L 362.980469 502.199219 L 357.414062 497.644531 L 352.351562 494.605469 L 346.273438 492.582031 L 338.175781 490.554688 L 331.59375 487.011719 L 326.53125 482.457031 L 322.988281 478.40625 L 319.949219 473.34375 L 317.925781 466.761719 L 318.429688 465.242188 L 320.960938 467.773438 L 325.519531 472.835938 L 330.074219 476.382812 L 334.632812 478.40625 L 340.199219 478.914062 L 344.25 477.394531 L 348.300781 477.898438 L 353.363281 479.925781 L 361.460938 483.976562 L 365.007812 485.492188 L 366.523438 492.582031 L 369.5625 497.136719 L 374.625 500.175781 L 378.675781 501.1875 L 384.242188 500.679688 L 391.332031 497.136719 L 396.394531 492.582031 L 397.40625 491.570312 L 409.050781 491.0625 L 421.199219 489.039062 L 431.324219 486 L 439.425781 482.960938 L 451.070312 476.886719 L 459.167969 471.824219 L 465.242188 467.269531 L 470.8125 462.710938 L 476.886719 457.144531 L 482.457031 451.574219 L 486.507812 446.511719 L 488.023438 446.511719 Z M 490.554688 444.992188 " fill-opacity="1" fill-rule="nonzero"/><path fill="#6c5549" d="M 511.820312 398.925781 L 512.832031 399.429688 L 512.324219 402.46875 L 508.273438 411.582031 L 501.1875 425.757812 L 495.617188 434.867188 L 489.542969 443.476562 L 483.976562 450.054688 L 479.417969 455.117188 L 472.835938 461.699219 L 467.269531 466.257812 L 460.6875 471.320312 L 452.585938 476.382812 L 444.488281 480.9375 L 435.882812 484.988281 L 423.226562 489.039062 L 413.101562 491.0625 L 410.570312 491.0625 L 413.605469 487.519531 L 419.175781 480.429688 L 424.238281 477.898438 L 425.757812 474.863281 L 432.335938 470.8125 L 439.929688 467.773438 L 444.488281 464.230469 L 447.523438 460.6875 L 449.042969 456.636719 L 451.070312 454.105469 L 456.636719 450.054688 L 459.675781 445.5 L 461.195312 444.488281 L 465.75 442.96875 L 468.28125 440.945312 L 470.8125 434.867188 L 471.824219 434.867188 L 471.824219 433.855469 L 476.886719 432.335938 L 481.949219 428.792969 L 482.960938 428.792969 L 483.976562 426.769531 L 488.53125 422.210938 L 491.570312 417.148438 L 495.113281 414.113281 L 498.148438 409.554688 L 504.730469 402.976562 L 507.261719 399.9375 Z M 511.820312 398.925781 " fill-opacity="1" fill-rule="nonzero"/><path fill="#8e7564" d="M 428.792969 421.199219 L 430.820312 421.707031 L 440.4375 426.769531 L 450.054688 430.3125 L 449.550781 432.84375 L 446.511719 437.90625 L 441.449219 444.992188 L 440.945312 448.03125 L 440.4375 452.585938 L 437.90625 455.117188 L 428.289062 460.179688 L 426.261719 461.195312 L 425.25 463.21875 L 422.210938 465.75 L 416.644531 468.789062 L 411.074219 472.835938 L 406.011719 476.382812 L 403.480469 476.886719 L 401.960938 470.304688 L 399.429688 466.761719 L 396.898438 461.699219 L 393.863281 459.675781 L 392.34375 459.167969 L 388.292969 459.167969 L 385.761719 457.144531 L 381.710938 457.144531 L 382.726562 454.613281 L 385.761719 450.054688 L 390.320312 444.992188 L 394.367188 441.449219 L 399.429688 438.414062 L 406.011719 435.882812 L 411.074219 434.867188 L 422.71875 434.867188 L 427.78125 423.730469 Z M 428.792969 421.199219 " fill-opacity="1" fill-rule="nonzero"/><path fill="#fde4ca" d="M 485.492188 345.261719 L 491.570312 346.78125 L 501.1875 351.84375 L 507.769531 357.414062 L 510.300781 359.945312 L 509.792969 361.96875 L 510.804688 361.460938 L 510.300781 359.4375 L 508.78125 357.414062 L 509.289062 355.386719 L 510.300781 353.867188 L 512.324219 353.867188 L 514.351562 356.398438 L 514.351562 362.476562 L 511.820312 367.539062 L 507.769531 371.585938 L 500.175781 375.636719 L 491.570312 378.167969 L 482.960938 380.195312 L 476.886719 382.726562 L 470.304688 387.789062 L 467.773438 390.824219 L 466.257812 391.332031 L 455.625 391.332031 L 447.019531 389.304688 L 449.042969 381.207031 L 449.042969 372.601562 L 447.523438 367.539062 L 448.03125 366.019531 L 451.574219 362.980469 L 457.144531 359.945312 L 461.195312 356.90625 L 467.269531 353.867188 L 472.332031 348.300781 L 478.914062 347.792969 L 481.949219 350.832031 L 482.960938 354.375 L 487.519531 358.425781 L 488.023438 360.449219 L 490.554688 361.460938 L 494.101562 364.5 L 495.113281 366.019531 L 494.101562 363.488281 L 488.53125 357.917969 L 486 356.398438 L 486 355.386719 L 483.46875 354.375 L 482.457031 352.351562 L 484.480469 351.84375 L 492.074219 357.414062 L 494.605469 360.449219 L 497.136719 362.980469 L 500.679688 368.550781 L 498.65625 363.992188 L 499.667969 361.460938 L 503.71875 359.4375 L 506.25 359.945312 L 507.769531 360.957031 L 504.226562 357.414062 L 496.632812 352.351562 L 488.53125 348.804688 L 484.988281 347.289062 Z M 485.492188 345.261719 " fill-opacity="1" fill-rule="nonzero"/><path fill="#8e7564" d="M 347.289062 401.457031 L 352.351562 401.457031 L 347.289062 414.617188 L 345.261719 422.210938 L 344.757812 429.300781 L 345.769531 436.894531 L 348.804688 444.992188 L 351.84375 450.054688 L 356.398438 455.117188 L 361.460938 459.167969 L 369.054688 462.710938 L 371.585938 463.726562 L 370.574219 464.738281 L 371.082031 465.75 L 368.550781 470.304688 L 366.523438 473.851562 L 364.5 472.332031 L 359.945312 473.851562 L 351.84375 475.875 L 349.820312 474.863281 L 347.792969 472.332031 L 347.792969 458.664062 L 345.261719 450.054688 L 341.210938 441.957031 L 338.175781 437.90625 L 334.125 435.375 L 329.0625 434.363281 L 327.542969 433.351562 L 322.480469 432.84375 L 322.480469 427.273438 L 325.011719 419.175781 L 329.0625 413.101562 L 332.605469 409.050781 L 339.1875 404.492188 L 345.261719 401.960938 Z M 347.289062 401.457031 " fill-opacity="1" fill-rule="nonzero"/><path fill="#58453a" d="M 382.21875 456.636719 L 385.761719 456.636719 L 388.800781 458.664062 L 392.34375 458.664062 L 396.394531 460.6875 L 398.417969 463.21875 L 400.949219 468.28125 L 400.949219 469.800781 L 400.445312 469.292969 L 397.40625 469.292969 L 392.851562 472.835938 L 389.304688 476.886719 L 388.292969 476.382812 L 388.800781 473.34375 L 390.320312 469.800781 L 389.8125 467.269531 L 390.824219 465.75 L 390.824219 462.207031 L 390.320312 460.6875 L 387.789062 462.207031 L 383.738281 468.789062 L 382.726562 471.320312 L 383.738281 471.320312 L 385.761719 476.886719 L 386.269531 486 L 384.242188 491.570312 L 387.789062 492.582031 L 390.320312 496.632812 L 391.332031 496.632812 L 390.824219 498.148438 L 384.242188 501.1875 L 378.675781 501.695312 L 373.613281 500.175781 L 369.054688 497.136719 L 366.019531 492.582031 L 365.007812 489.039062 L 365.007812 485.492188 L 360.449219 483.976562 L 352.351562 479.925781 L 351.335938 477.898438 L 347.792969 473.851562 L 348.300781 472.332031 L 350.832031 475.367188 L 356.398438 474.355469 L 363.488281 471.824219 L 366.019531 472.835938 L 366.523438 473.34375 L 370.574219 465.242188 L 369.5625 464.230469 L 372.09375 463.726562 L 375.636719 459.675781 L 378.675781 457.648438 Z M 382.21875 456.636719 " fill-opacity="1" fill-rule="nonzero"/><path fill="#9b8271" d="M 499.164062 286.539062 L 501.1875 287.042969 L 506.25 291.09375 L 510.300781 295.144531 L 512.832031 299.699219 L 516.375 303.242188 L 517.386719 304.761719 L 517.386719 307.292969 L 513.335938 309.320312 L 512.324219 317.417969 L 509.792969 322.988281 L 508.273438 329.0625 L 506.25 340.707031 L 504.226562 341.71875 L 504.226562 342.730469 L 499.667969 343.742188 L 481.445312 340.707031 L 476.382812 338.679688 L 473.851562 336.148438 L 475.875 336.65625 L 477.898438 334.632812 L 480.9375 334.632812 L 476.886719 332.605469 L 474.355469 329.570312 L 473.34375 327.039062 L 473.34375 323.492188 L 474.355469 322.480469 L 476.886719 322.480469 L 478.914062 327.542969 L 481.445312 329.570312 L 486.507812 329.570312 L 490.050781 329.0625 L 491.0625 330.074219 L 491.570312 332.101562 L 492.074219 328.554688 L 492.582031 327.542969 L 493.085938 320.457031 L 495.617188 313.875 L 497.136719 311.34375 L 498.65625 306.789062 L 499.164062 303.242188 L 496.632812 300.207031 L 497.136719 295.648438 L 500.175781 291.09375 L 501.1875 290.082031 L 500.679688 288.054688 Z M 499.164062 286.539062 " fill-opacity="1" fill-rule="nonzero"/><path fill="#816759" d="M 369.054688 360.449219 L 372.601562 360.957031 L 376.144531 362.980469 L 379.179688 366.523438 L 380.195312 368.550781 L 380.699219 373.105469 L 379.6875 378.675781 L 376.144531 384.242188 L 372.601562 387.28125 L 367.03125 389.8125 L 363.992188 390.320312 L 356.398438 390.320312 L 354.882812 386.269531 L 354.375 383.738281 L 354.882812 377.15625 L 357.414062 370.574219 L 360.957031 366.019531 L 365.511719 361.96875 Z M 369.054688 360.449219 " fill-opacity="1" fill-rule="nonzero"/><path fill="#77b1a6" d="M 490.554688 444.992188 L 493.085938 445.5 L 496.632812 446.511719 L 494.605469 450.054688 L 489.039062 456.636719 L 484.480469 461.699219 L 481.949219 464.738281 L 476.382812 469.292969 L 471.320312 473.851562 L 463.21875 479.925781 L 454.613281 486 L 447.523438 490.050781 L 445.5 489.039062 L 441.957031 486 L 440.945312 483.976562 L 439.425781 483.976562 L 439.425781 482.960938 L 451.070312 476.886719 L 459.167969 471.824219 L 465.242188 467.269531 L 470.8125 462.710938 L 476.886719 457.144531 L 482.457031 451.574219 L 486.507812 446.511719 L 488.023438 446.511719 Z M 490.554688 444.992188 " fill-opacity="1" fill-rule="nonzero"/><path fill="#fcfcfc" d="M 311.34375 274.894531 L 315.394531 274.894531 L 318.429688 276.414062 L 321.976562 279.449219 L 324.507812 276.414062 L 327.039062 274.894531 L 332.101562 274.894531 L 335.644531 277.929688 L 336.148438 279.449219 L 336.148438 284.007812 L 334.125 288.054688 L 329.570312 293.117188 L 322.988281 298.6875 L 319.445312 298.179688 L 312.355469 292.105469 L 308.8125 288.054688 L 306.789062 283.5 L 306.789062 279.449219 L 308.8125 276.414062 Z M 311.34375 274.894531 " fill-opacity="1" fill-rule="nonzero"/><path fill="#6c5549" d="M 420.695312 388.800781 L 426.261719 390.320312 L 429.804688 393.355469 L 429.804688 393.863281 L 426.261719 393.355469 L 424.742188 392.851562 L 419.175781 392.851562 L 418.667969 393.863281 L 418.667969 397.40625 L 420.1875 398.925781 L 426.261719 401.960938 L 427.78125 403.988281 L 425.25 403.480469 L 419.175781 401.960938 L 421.707031 407.023438 L 428.289062 413.101562 L 436.386719 418.164062 L 443.980469 421.707031 L 453.601562 424.742188 L 461.699219 425.757812 L 468.789062 426.261719 L 469.800781 428.792969 L 467.269531 431.324219 L 463.726562 434.363281 L 459.675781 436.386719 L 457.648438 436.894531 L 452.082031 436.894531 L 448.03125 436.386719 L 448.539062 433.855469 L 450.054688 430.3125 L 444.488281 428.792969 L 436.386719 425.25 L 428.289062 420.695312 L 421.707031 414.617188 L 418.164062 410.570312 L 416.136719 406.519531 L 415.632812 404.492188 L 415.632812 397.914062 L 417.65625 392.851562 Z M 420.695312 388.800781 " fill-opacity="1" fill-rule="nonzero"/><path fill="#6b5448" d="M 333.113281 434.867188 L 336.148438 435.882812 L 340.199219 439.425781 L 344.25 446.511719 L 347.289062 454.613281 L 348.300781 458.664062 L 348.300781 461.699219 L 345.261719 463.21875 L 341.210938 465.75 L 339.1875 465.75 L 337.164062 459.675781 L 334.125 455.625 L 331.085938 454.105469 L 327.039062 454.105469 L 325.011719 455.625 L 324 455.625 L 322.988281 458.664062 L 319.445312 455.625 L 315.898438 450.054688 L 315.394531 448.539062 L 315.394531 444.992188 L 317.417969 443.980469 L 319.445312 446.007812 L 321.46875 449.042969 L 322.988281 449.550781 L 322.988281 444.488281 L 322.480469 440.4375 L 323.492188 439.425781 L 326.53125 441.957031 L 329.0625 448.03125 L 330.582031 448.539062 L 330.074219 446.007812 L 330.074219 437.90625 Z M 333.113281 434.867188 " fill-opacity="1" fill-rule="nonzero"/><path fill="#382b24" d="M 439.425781 316.40625 L 445.5 316.40625 L 452.585938 318.9375 L 457.144531 321.976562 L 459.675781 325.519531 L 459.675781 329.570312 L 456.636719 333.113281 L 452.082031 335.136719 L 450.054688 335.644531 L 444.488281 335.644531 L 443.476562 335.136719 L 443.980469 340.199219 L 446.007812 343.742188 L 448.539062 345.261719 L 450.5625 345.769531 L 456.132812 345.769531 L 459.675781 344.757812 L 460.6875 346.78125 L 458.15625 348.804688 L 455.625 349.820312 L 450.5625 349.820312 L 446.511719 348.300781 L 442.460938 344.757812 L 440.4375 340.707031 L 440.4375 335.136719 L 440.945312 333.617188 L 438.917969 332.605469 L 435.882812 329.0625 L 434.363281 325.519531 L 434.363281 319.949219 L 437.398438 317.417969 Z M 439.425781 316.40625 " fill-opacity="1" fill-rule="nonzero"/><path fill="#816759" d="M 344.25 435.882812 L 345.261719 435.882812 L 349.3125 446.007812 L 352.855469 451.574219 L 357.917969 456.636719 L 363.488281 460.179688 L 369.054688 462.710938 L 371.585938 463.726562 L 370.574219 464.738281 L 371.082031 465.75 L 368.550781 470.304688 L 366.523438 473.851562 L 364.5 472.332031 L 359.945312 473.851562 L 351.84375 475.875 L 349.820312 474.863281 L 347.792969 472.332031 L 347.792969 458.664062 L 345.261719 450.054688 L 340.199219 439.929688 L 341.71875 437.90625 L 342.730469 437.90625 L 342.730469 436.894531 Z M 344.25 435.882812 " fill-opacity="1" fill-rule="nonzero"/><path fill="#e6f1ee" d="M 530.042969 415.125 L 532.070312 416.136719 L 531.5625 420.695312 L 528.523438 430.820312 L 524.980469 438.917969 L 520.929688 446.007812 L 515.867188 453.09375 L 509.792969 459.675781 L 503.71875 465.75 L 494.101562 472.835938 L 484.480469 478.40625 L 479.925781 480.429688 L 477.898438 480.429688 L 478.914062 478.40625 L 488.023438 471.320312 L 493.085938 466.761719 L 497.136719 463.21875 L 505.238281 455.117188 L 509.792969 449.550781 L 515.363281 441.957031 L 519.414062 435.375 L 523.96875 427.273438 L 529.03125 416.136719 Z M 530.042969 415.125 " fill-opacity="1" fill-rule="nonzero"/><path fill="#6b5448" d="M 388.800781 460.6875 L 390.320312 460.6875 L 391.332031 462.207031 L 391.332031 465.75 L 390.320312 467.269531 L 390.824219 470.304688 L 388.800781 474.355469 L 389.304688 476.382812 L 394.367188 470.8125 L 397.40625 468.789062 L 400.445312 468.789062 L 401.960938 469.292969 L 403.480469 473.851562 L 403.480469 477.898438 L 401.960938 483.976562 L 397.914062 491.570312 L 392.851562 496.632812 L 389.8125 497.136719 L 387.789062 493.085938 L 384.242188 491.570312 L 384.75 489.039062 L 385.761719 486 L 385.257812 476.886719 L 383.738281 472.332031 L 383.738281 471.320312 L 382.726562 471.320312 L 383.230469 468.789062 L 387.28125 462.207031 Z M 388.800781 460.6875 " fill-opacity="1" fill-rule="nonzero"/><path fill="#59463b" d="M 521.4375 317.417969 L 526.5 317.417969 L 530.550781 318.9375 L 533.082031 320.960938 L 535.613281 325.011719 L 536.117188 330.074219 L 534.601562 335.136719 L 531.054688 339.1875 L 528.019531 341.210938 L 527.007812 353.363281 L 525.992188 353.867188 L 524.980469 349.820312 L 522.449219 344.757812 L 522.449219 341.71875 L 520.929688 340.707031 L 519.917969 329.570312 L 517.386719 321.46875 L 517.894531 318.9375 Z M 521.4375 317.417969 " fill-opacity="1" fill-rule="nonzero"/><path fill="#a88e7b" d="M 428.792969 421.199219 L 430.820312 421.707031 L 440.4375 426.769531 L 450.054688 430.3125 L 449.550781 432.84375 L 446.511719 437.90625 L 441.957031 443.980469 L 439.929688 443.980469 L 432.84375 439.425781 L 427.273438 437.398438 L 421.707031 435.882812 L 424.238281 431.832031 Z M 428.792969 421.199219 " fill-opacity="1" fill-rule="nonzero"/><path fill="#a7ccc3" d="M 402.976562 339.1875 L 406.011719 339.695312 L 407.53125 341.210938 L 408.039062 343.742188 L 407.53125 344.757812 L 408.542969 344.757812 L 408.039062 348.804688 L 406.519531 350.832031 L 405.507812 350.832031 L 404.492188 352.855469 L 397.914062 357.414062 L 392.851562 357.917969 L 388.292969 358.425781 L 386.773438 357.917969 L 385.761719 355.894531 L 386.269531 351.335938 L 387.28125 348.300781 L 388.292969 347.289062 L 389.304688 345.261719 L 391.835938 342.730469 L 397.914062 340.199219 Z M 402.976562 339.1875 " fill-opacity="1" fill-rule="nonzero"/><path fill="#78b2a7" d="M 442.460938 355.894531 L 443.980469 357.414062 L 445.5 362.476562 L 446.007812 369.5625 L 445.5 376.648438 L 443.476562 384.242188 L 442.460938 387.28125 L 438.414062 386.773438 L 429.300781 385.257812 L 430.3125 382.21875 L 433.855469 380.195312 L 436.386719 372.09375 L 437.90625 366.019531 L 439.929688 364.5 L 440.945312 364.5 L 441.957031 359.945312 Z M 442.460938 355.894531 " fill-opacity="1" fill-rule="nonzero"/><path fill="#fde4ca" d="M 411.582031 311.34375 L 413.605469 311.851562 L 414.113281 313.875 L 413.101562 316.914062 L 412.59375 320.960938 L 414.617188 321.46875 L 416.136719 327.039062 L 418.164062 330.074219 L 418.164062 331.59375 L 415.125 332.101562 L 415.125 333.113281 L 402.976562 333.113281 L 397.914062 333.617188 L 397.40625 329.0625 L 398.417969 325.519531 L 401.960938 323.492188 L 407.53125 322.480469 L 409.554688 318.429688 L 410.570312 317.925781 L 410.0625 314.382812 L 409.554688 312.863281 L 410.0625 311.851562 Z M 411.582031 311.34375 " fill-opacity="1" fill-rule="nonzero"/><path fill="#342821" d="M 376.648438 475.875 L 381.207031 475.875 L 384.242188 477.898438 L 386.269531 481.949219 L 386.269531 486 L 384.242188 491.0625 L 380.699219 493.59375 L 377.15625 494.101562 L 375.636719 492.582031 L 374.117188 492.074219 L 373.105469 489.542969 L 372.601562 485.492188 L 371.082031 483.976562 L 372.601562 478.914062 L 375.636719 476.382812 Z M 376.648438 475.875 " fill-opacity="1" fill-rule="nonzero"/><path fill="#fde4cb" d="M 415.632812 405 L 416.644531 406.519531 L 419.175781 411.074219 L 423.730469 416.136719 L 428.289062 420.1875 L 429.300781 421.199219 L 423.730469 433.855469 L 422.71875 435.375 L 412.59375 434.867188 L 413.605469 431.832031 L 416.644531 426.769531 L 419.175781 420.695312 L 418.667969 417.148438 L 416.136719 411.074219 L 415.632812 409.554688 Z M 415.632812 405 " fill-opacity="1" fill-rule="nonzero"/><path fill="#fdf0e0" d="M 385.761719 307.800781 L 392.34375 307.800781 L 399.9375 309.824219 L 408.039062 313.875 L 411.074219 315.898438 L 410.570312 318.429688 L 409.554688 318.429688 L 408.542969 321.976562 L 406.011719 323.492188 L 400.949219 324.507812 L 398.417969 326.023438 L 397.914062 332.101562 L 397.40625 333.617188 L 396.898438 332.605469 L 397.40625 324.507812 L 398.417969 320.960938 L 387.28125 321.976562 L 383.230469 322.480469 L 383.230469 320.457031 L 387.28125 318.9375 L 391.332031 318.429688 L 399.429688 318.429688 L 400.949219 313.875 L 401.457031 312.863281 L 396.898438 311.851562 L 392.851562 310.835938 L 387.28125 310.332031 L 385.257812 309.320312 Z M 385.761719 307.800781 " fill-opacity="1" fill-rule="nonzero"/><path fill="#5a473c" d="M 419.679688 278.945312 L 425.25 278.945312 L 429.300781 281.476562 L 429.804688 283.5 L 422.71875 288.054688 L 416.644531 293.625 L 413.605469 296.664062 L 412.085938 296.15625 L 411.074219 292.105469 L 411.074219 288.5625 L 413.101562 283.5 L 417.148438 279.957031 Z M 419.679688 278.945312 " fill-opacity="1" fill-rule="nonzero"/><path fill="#6c5549" d="M 454.105469 425.25 L 468.789062 426.261719 L 469.800781 428.792969 L 467.269531 431.324219 L 463.726562 434.363281 L 459.675781 436.386719 L 457.648438 436.894531 L 452.082031 436.894531 L 448.03125 436.386719 L 448.539062 433.855469 L 450.054688 430.3125 L 452.585938 430.3125 L 452.082031 427.78125 L 453.09375 425.757812 Z M 454.105469 425.25 " fill-opacity="1" fill-rule="nonzero"/><path fill="#a8cdc4" d="M 545.230469 369.5625 L 548.269531 371.585938 L 549.789062 375.636719 L 549.789062 378.167969 L 547.761719 379.6875 L 544.726562 376.648438 L 542.195312 381.710938 L 535.105469 390.824219 L 530.042969 395.382812 L 527.007812 396.898438 L 524.476562 396.394531 L 522.957031 394.367188 L 529.539062 389.8125 L 533.082031 386.269531 L 537.636719 379.6875 L 539.664062 375.636719 L 542.195312 373.613281 L 543.710938 373.613281 L 544.726562 370.574219 Z M 545.230469 369.5625 " fill-opacity="1" fill-rule="nonzero"/><path fill="#a5cbc2" d="M 484.480469 486 L 486 486 L 486 489.542969 L 484.480469 492.582031 L 481.445312 492.582031 L 471.824219 498.148438 L 459.675781 503.210938 L 454.105469 504.730469 L 450.054688 504.730469 L 448.539062 503.210938 L 462.207031 497.644531 L 473.851562 492.074219 L 483.46875 486.507812 Z M 484.480469 486 " fill-opacity="1" fill-rule="nonzero"/><path fill="#816759" d="M 347.289062 401.457031 L 352.351562 401.457031 L 347.289062 414.617188 L 345.261719 422.210938 L 344.757812 429.300781 L 344.757812 435.375 L 343.742188 433.855469 L 343.238281 432.335938 L 339.695312 431.832031 L 338.679688 430.3125 L 338.679688 423.226562 L 341.71875 419.679688 L 342.730469 419.679688 L 343.238281 417.65625 L 343.742188 409.554688 L 347.289062 406.011719 L 348.300781 402.46875 L 346.78125 401.960938 Z M 347.289062 401.457031 " fill-opacity="1" fill-rule="nonzero"/><path fill="#574439" d="M 388.800781 458.664062 L 392.34375 458.664062 L 396.394531 460.6875 L 398.417969 463.21875 L 400.949219 468.28125 L 400.949219 469.800781 L 400.445312 469.292969 L 397.40625 469.292969 L 392.851562 472.835938 L 389.304688 476.886719 L 388.292969 476.382812 L 388.800781 473.34375 L 390.320312 469.800781 L 389.8125 467.269531 L 390.824219 465.75 L 390.824219 462.207031 L 390.320312 460.6875 L 387.789062 462.207031 L 383.738281 468.789062 L 382.21875 471.320312 L 380.699219 470.8125 L 382.21875 465.75 L 385.257812 461.195312 L 387.28125 459.167969 Z M 388.800781 458.664062 " fill-opacity="1" fill-rule="nonzero"/><path fill="#6e574a" d="M 367.03125 378.167969 L 370.070312 378.675781 L 373.105469 380.195312 L 378.167969 380.195312 L 377.15625 382.726562 L 374.117188 386.269531 L 367.03125 389.8125 L 363.992188 390.320312 L 356.398438 390.320312 L 354.882812 386.269531 L 354.375 383.738281 L 354.375 380.195312 L 355.386719 379.179688 L 356.90625 382.726562 L 359.945312 384.242188 L 361.96875 384.75 L 367.03125 384.75 L 370.070312 383.738281 L 369.054688 381.710938 L 367.03125 379.6875 Z M 367.03125 378.167969 " fill-opacity="1" fill-rule="nonzero"/><path fill="#fde4cb" d="M 432.84375 430.3125 L 435.882812 431.324219 L 442.96875 434.363281 L 447.523438 435.882812 L 443.980469 441.449219 L 441.449219 444.488281 L 438.917969 443.476562 L 433.855469 439.929688 L 429.300781 437.90625 L 429.804688 435.882812 Z M 432.84375 430.3125 " fill-opacity="1" fill-rule="nonzero"/><path fill="#6c5549" d="M 363.488281 471.824219 L 366.019531 472.835938 L 367.03125 473.34375 L 366.019531 478.914062 L 365.007812 485.492188 L 360.449219 483.976562 L 352.351562 479.925781 L 351.335938 477.898438 L 347.792969 473.851562 L 348.300781 472.332031 L 350.832031 475.367188 L 356.398438 474.355469 Z M 363.488281 471.824219 " fill-opacity="1" fill-rule="nonzero"/><path fill="#e6f1ee" d="M 283.5 426.261719 L 284.511719 426.261719 L 288.5625 436.894531 L 294.132812 447.019531 L 300.710938 455.625 L 303.242188 458.664062 L 303.242188 459.675781 L 299.699219 459.167969 L 293.625 453.601562 L 290.082031 449.042969 L 286.03125 440.945312 L 284.007812 434.363281 L 283.5 431.832031 Z M 283.5 426.261719 " fill-opacity="1" fill-rule="nonzero"/><path fill="#8f7564" d="M 369.054688 360.449219 L 372.601562 360.957031 L 376.144531 362.980469 L 378.675781 365.511719 L 377.664062 367.539062 L 376.144531 368.550781 L 373.105469 369.5625 L 366.019531 369.5625 L 363.992188 371.082031 L 360.449219 371.082031 L 358.425781 370.070312 L 359.4375 367.539062 L 362.980469 363.992188 L 367.539062 360.957031 Z M 369.054688 360.449219 " fill-opacity="1" fill-rule="nonzero"/><path fill="#fde4cb" d="M 382.726562 450.5625 L 384.242188 450.5625 L 383.738281 453.601562 L 381.710938 457.144531 L 377.15625 459.167969 L 373.105469 462.710938 L 371.585938 464.230469 L 369.054688 463.21875 L 369.054688 462.207031 L 366.019531 461.195312 L 361.96875 458.664062 L 361.460938 457.648438 L 375.132812 453.601562 Z M 382.726562 450.5625 " fill-opacity="1" fill-rule="nonzero"/><path fill="#9a8170" d="M 408.039062 435.375 L 410.570312 435.882812 L 415.632812 435.882812 L 416.136719 437.398438 L 415.632812 439.425781 L 409.050781 442.460938 L 403.988281 442.460938 L 400.445312 443.476562 L 396.898438 444.992188 L 393.863281 444.488281 L 393.355469 442.460938 L 398.417969 438.917969 L 406.011719 435.882812 Z M 408.039062 435.375 " fill-opacity="1" fill-rule="nonzero"/><path fill="#a88e7b" d="M 446.511719 365.511719 L 447.523438 366.019531 L 449.550781 372.601562 L 449.550781 381.207031 L 447.523438 388.292969 L 446.511719 389.304688 L 441.957031 387.789062 L 444.488281 379.179688 L 445.5 373.105469 L 445.5 366.523438 Z M 446.511719 365.511719 " fill-opacity="1" fill-rule="nonzero"/><path fill="#362a23" d="M 474.355469 322.480469 L 476.886719 322.480469 L 478.914062 327.542969 L 481.445312 329.570312 L 486.507812 329.570312 L 490.050781 329.0625 L 491.0625 330.074219 L 490.554688 332.101562 L 488.023438 334.125 L 486.507812 334.632812 L 480.9375 334.632812 L 476.886719 332.605469 L 474.355469 329.570312 L 473.34375 327.039062 L 473.34375 323.492188 Z M 474.355469 322.480469 " fill-opacity="1" fill-rule="nonzero"/><path fill="#816759" d="M 344.25 435.882812 L 345.261719 435.882812 L 349.3125 446.007812 L 350.832031 449.042969 L 350.832031 450.054688 L 351.335938 453.09375 L 347.289062 455.117188 L 344.757812 449.042969 L 340.707031 440.945312 L 340.707031 439.425781 L 341.71875 437.90625 L 342.730469 437.90625 L 342.730469 436.894531 Z M 344.25 435.882812 " fill-opacity="1" fill-rule="nonzero"/><path fill="#362a22" d="M 422.210938 303.75 L 424.742188 303.75 L 425.757812 305.269531 L 426.769531 308.304688 L 427.78125 308.8125 L 431.832031 308.8125 L 434.867188 307.292969 L 436.894531 307.800781 L 437.398438 309.824219 L 433.855469 312.863281 L 432.84375 313.367188 L 426.261719 313.367188 L 423.226562 311.34375 L 421.199219 308.8125 L 421.199219 304.761719 Z M 422.210938 303.75 " fill-opacity="1" fill-rule="nonzero"/><path fill="#59463b" d="M 455.117188 425.757812 L 461.699219 425.757812 L 468.789062 426.261719 L 469.800781 428.792969 L 466.761719 431.832031 L 458.664062 431.832031 L 453.601562 430.820312 L 455.117188 430.3125 L 456.132812 426.261719 Z M 455.117188 425.757812 " fill-opacity="1" fill-rule="nonzero"/><path fill="#352921" d="M 521.4375 325.011719 L 524.980469 325.011719 L 527.511719 326.53125 L 528.019531 327.039062 L 528.019531 331.59375 L 524.980469 335.136719 L 521.945312 336.65625 L 520.929688 336.65625 L 519.414062 327.542969 L 519.414062 325.519531 Z M 521.4375 325.011719 " fill-opacity="1" fill-rule="nonzero"/><path fill="#47382f" d="M 485.492188 345.261719 L 491.570312 346.78125 L 501.1875 351.84375 L 507.769531 357.414062 L 510.300781 359.945312 L 509.792969 361.96875 L 507.769531 360.957031 L 504.226562 357.414062 L 496.632812 352.351562 L 488.53125 348.804688 L 484.988281 347.289062 Z M 485.492188 345.261719 " fill-opacity="1" fill-rule="nonzero"/><path fill="#6a5649" d="M 385.761719 307.800781 L 392.34375 307.800781 L 399.9375 309.824219 L 408.039062 313.875 L 409.554688 314.886719 L 409.554688 316.914062 L 407.023438 316.40625 L 399.9375 312.863281 L 392.851562 310.835938 L 387.28125 310.332031 L 385.257812 309.320312 Z M 385.761719 307.800781 " fill-opacity="1" fill-rule="nonzero"/><path fill="#46372e" d="M 482.960938 351.84375 L 484.988281 352.351562 L 492.074219 357.414062 L 494.605469 360.449219 L 497.136719 362.980469 L 500.679688 368.550781 L 500.679688 371.585938 L 498.65625 371.082031 L 495.617188 365.511719 L 490.050781 359.4375 L 486 356.398438 L 486 355.386719 L 483.46875 354.375 L 482.457031 352.351562 Z M 482.960938 351.84375 " fill-opacity="1" fill-rule="nonzero"/><path fill="#fee4ca" d="M 374.625 385.257812 L 376.648438 386.269531 L 373.105469 389.304688 L 367.539062 392.34375 L 359.4375 394.367188 L 355.386719 394.367188 L 356.398438 390.320312 L 367.03125 389.304688 L 374.117188 385.761719 Z M 374.625 385.257812 " fill-opacity="1" fill-rule="nonzero"/><path fill="#44362d" d="M 391.332031 318.429688 L 399.429688 318.429688 L 405.507812 319.949219 L 406.011719 321.976562 L 404.492188 322.480469 L 398.417969 321.46875 L 390.824219 321.46875 L 385.257812 322.480469 L 382.726562 321.976562 L 383.738281 319.949219 L 387.28125 318.9375 Z M 391.332031 318.429688 " fill-opacity="1" fill-rule="nonzero"/><path fill="#96c1b7" d="M 543.710938 360.957031 L 545.738281 362.980469 L 549.28125 370.574219 L 550.800781 376.144531 L 549.28125 375.636719 L 548.269531 371.585938 L 546.242188 370.574219 L 545.230469 370.574219 L 543.710938 373.613281 L 541.179688 374.117188 L 540.167969 376.144531 L 541.179688 371.585938 L 543.207031 363.992188 Z M 543.710938 360.957031 " fill-opacity="1" fill-rule="nonzero"/><path fill="#58453a" d="M 439.929688 318.429688 L 443.980469 318.429688 L 449.042969 319.949219 L 451.070312 321.46875 L 450.054688 323.492188 L 446.007812 323.492188 L 439.425781 321.46875 L 438.414062 319.445312 Z M 439.929688 318.429688 " fill-opacity="1" fill-rule="nonzero"/><path fill="#6c5549" d="M 475.875 388.800781 L 476.886719 388.800781 L 475.875 391.332031 L 471.824219 393.355469 L 466.257812 394.367188 L 462.710938 394.367188 L 463.726562 393.863281 L 463.726562 392.851562 L 459.675781 392.34375 L 459.675781 391.835938 L 465.242188 391.332031 L 471.824219 389.8125 Z M 475.875 388.800781 " fill-opacity="1" fill-rule="nonzero"/><path fill="#59463b" d="M 447.523438 423.730469 L 451.574219 424.238281 L 454.105469 425.25 L 453.09375 425.757812 L 452.585938 430.3125 L 449.042969 430.3125 L 443.476562 428.289062 L 443.476562 427.273438 L 446.007812 426.769531 L 447.019531 425.757812 Z M 447.523438 423.730469 " fill-opacity="1" fill-rule="nonzero"/><path fill="#6e574a" d="M 522.449219 341.210938 L 527.511719 341.71875 L 527.511719 348.804688 L 527.007812 353.363281 L 525.992188 353.867188 L 524.980469 349.820312 L 522.449219 344.757812 Z M 522.449219 341.210938 " fill-opacity="1" fill-rule="nonzero"/><path fill="#362922" d="M 388.800781 458.664062 L 392.34375 458.664062 L 392.34375 459.675781 L 388.292969 461.699219 L 384.75 466.761719 L 382.21875 471.320312 L 380.699219 470.8125 L 382.21875 465.75 L 385.257812 461.195312 L 387.28125 459.167969 Z M 388.800781 458.664062 " fill-opacity="1" fill-rule="nonzero"/><path fill="#6c5549" d="M 376.144531 466.761719 L 378.167969 468.789062 L 380.699219 468.789062 L 380.699219 469.800781 L 379.6875 469.800781 L 379.6875 475.367188 L 375.636719 475.367188 L 374.625 472.835938 L 375.132812 468.28125 Z M 376.144531 466.761719 " fill-opacity="1" fill-rule="nonzero"/><path fill="#816759" d="M 322.988281 428.792969 L 323.492188 430.820312 L 328.050781 429.300781 L 330.074219 429.804688 L 332.101562 431.832031 L 332.101562 433.855469 L 333.113281 434.867188 L 330.074219 434.867188 L 327.542969 433.351562 L 322.480469 432.84375 L 322.480469 429.804688 Z M 322.988281 428.792969 " fill-opacity="1" fill-rule="nonzero"/><path fill="#8d7463" d="M 347.792969 447.019531 L 350.832031 448.539062 L 350.832031 450.054688 L 351.335938 453.09375 L 347.289062 455.117188 L 345.261719 450.054688 L 345.261719 448.539062 Z M 347.792969 447.019531 " fill-opacity="1" fill-rule="nonzero"/><path fill="#846a5b" d="M 449.550781 390.320312 L 455.625 390.824219 L 465.242188 391.332031 L 465.242188 391.835938 L 462.207031 392.34375 L 463.726562 392.851562 L 463.726562 393.863281 L 462.710938 394.367188 L 458.664062 394.367188 L 453.09375 392.851562 L 449.550781 390.824219 Z M 449.550781 390.320312 " fill-opacity="1" fill-rule="nonzero"/><path fill="#6d564a" d="M 420.695312 388.800781 L 426.261719 390.320312 L 429.804688 393.355469 L 429.804688 393.863281 L 426.261719 393.355469 L 424.742188 392.851562 L 419.175781 392.851562 L 417.148438 394.875 L 418.164062 391.835938 Z M 420.695312 388.800781 " fill-opacity="1" fill-rule="nonzero"/><path fill="#6d574a" d="M 361.96875 460.6875 L 365.511719 461.195312 L 371.585938 463.726562 L 370.574219 464.738281 L 371.082031 465.75 L 369.054688 467.773438 L 364.5 464.230469 L 361.96875 461.699219 Z M 361.96875 460.6875 " fill-opacity="1" fill-rule="nonzero"/><path fill="#634f43" d="M 387.28125 318.9375 L 395.382812 319.445312 L 395.382812 320.457031 L 398.417969 320.457031 L 398.417969 320.960938 L 387.28125 321.976562 L 383.230469 322.480469 L 383.230469 320.457031 Z M 387.28125 318.9375 " fill-opacity="1" fill-rule="nonzero"/><path fill="#a7ccc3" d="M 286.03125 352.855469 L 287.042969 353.363281 L 284.007812 362.476562 L 282.992188 364.5 L 279.957031 363.488281 L 284.007812 355.386719 Z M 286.03125 352.855469 " fill-opacity="1" fill-rule="nonzero"/><path fill="#352821" d="M 420.1875 285.523438 L 423.730469 286.539062 L 421.707031 289.070312 L 418.164062 292.105469 L 417.148438 291.601562 L 417.65625 287.042969 Z M 420.1875 285.523438 " fill-opacity="1" fill-rule="nonzero"/><path fill="#6ba59b" d="M 380.195312 373.105469 L 380.699219 373.105469 L 380.699219 380.699219 L 378.167969 385.761719 L 375.636719 385.761719 L 375.636719 384.242188 L 379.179688 378.675781 Z M 380.195312 373.105469 " fill-opacity="1" fill-rule="nonzero"/><path fill="#493a30" d="M 401.457031 311.34375 L 404.492188 311.851562 L 409.554688 314.886719 L 409.554688 316.914062 L 407.023438 316.40625 L 400.949219 312.863281 L 400.445312 311.851562 Z M 401.457031 311.34375 " fill-opacity="1" fill-rule="nonzero"/><path fill="#feeedb" d="M 374.625 385.257812 L 375.636719 385.257812 L 375.132812 386.773438 L 371.082031 389.304688 L 366.523438 390.824219 L 363.992188 391.332031 L 356.398438 391.332031 L 356.398438 390.320312 L 367.03125 389.304688 L 374.117188 385.761719 Z M 374.625 385.257812 " fill-opacity="1" fill-rule="nonzero"/><path fill="#f9ebdb" d="M 484.988281 355.386719 L 486 355.386719 L 486 356.398438 L 488.53125 357.414062 L 494.605469 363.488281 L 495.617188 365.007812 L 495.113281 366.523438 L 492.074219 362.980469 L 488.023438 360.449219 L 486 357.414062 Z M 484.988281 355.386719 " fill-opacity="1" fill-rule="nonzero"/><path fill="#342821" d="M 323.492188 458.15625 L 324.507812 458.664062 L 325.519531 461.195312 L 327.039062 462.710938 L 327.542969 467.773438 L 325.519531 466.761719 L 323.492188 462.207031 Z M 323.492188 458.15625 " fill-opacity="1" fill-rule="nonzero"/><path fill="#342821" d="M 319.445312 440.945312 L 320.960938 442.96875 L 322.480469 448.03125 L 322.480469 449.550781 L 320.457031 448.539062 L 318.429688 444.992188 L 318.429688 441.449219 Z M 319.445312 440.945312 " fill-opacity="1" fill-rule="nonzero"/><path fill="#342821" d="M 327.039062 453.601562 L 331.085938 453.601562 L 333.617188 455.117188 L 331.59375 456.636719 L 328.050781 456.132812 L 324.507812 456.636719 L 325.519531 454.613281 Z M 327.039062 453.601562 " fill-opacity="1" fill-rule="nonzero"/><path fill="#9b8271" d="M 486.507812 325.519531 L 488.53125 326.023438 L 489.039062 328.050781 L 488.023438 328.050781 L 487.519531 329.570312 L 483.976562 329.0625 L 483.46875 327.542969 L 484.988281 326.023438 Z M 486.507812 325.519531 " fill-opacity="1" fill-rule="nonzero"/><path fill="#78b2a7" d="M 448.539062 501.1875 L 450.5625 502.199219 L 444.488281 504.730469 L 441.449219 504.730469 L 440.945312 503.71875 L 442.460938 502.199219 L 445.5 502.199219 Z M 448.539062 501.1875 " fill-opacity="1" fill-rule="nonzero"/><path fill="#85b9ae" d="M 310.332031 494.101562 L 312.355469 495.113281 L 319.949219 499.667969 L 322.988281 501.695312 L 322.988281 502.707031 L 320.457031 501.695312 L 313.367188 497.136719 L 310.332031 495.113281 Z M 310.332031 494.101562 " fill-opacity="1" fill-rule="nonzero"/><path fill="#735c4f" d="M 516.882812 387.28125 L 517.386719 387.28125 L 516.882812 391.332031 L 515.363281 395.382812 L 513.84375 394.875 L 513.335938 392.34375 L 515.363281 389.8125 Z M 516.882812 387.28125 " fill-opacity="1" fill-rule="nonzero"/><path fill="#9a8170" d="M 476.886719 382.21875 L 479.417969 382.21875 L 479.925781 383.738281 L 478.914062 385.761719 L 476.382812 386.269531 L 474.863281 385.761719 L 475.367188 383.230469 Z M 476.886719 382.21875 " fill-opacity="1" fill-rule="nonzero"/><path fill="#5e4a3e" d="M 429.300781 420.1875 L 431.832031 421.199219 L 436.894531 424.238281 L 442.460938 426.769531 L 441.957031 427.78125 L 433.351562 423.730469 L 429.300781 421.199219 Z M 429.300781 420.1875 " fill-opacity="1" fill-rule="nonzero"/><path fill="#665044" d="M 441.449219 444.488281 L 444.488281 447.019531 L 447.019531 450.5625 L 446.511719 452.082031 L 445.5 452.082031 L 441.957031 447.019531 L 440.945312 444.992188 Z M 441.449219 444.488281 " fill-opacity="1" fill-rule="nonzero"/><path fill="#fee4ca" d="M 492.074219 343.238281 L 495.113281 343.238281 L 495.617188 345.261719 L 494.101562 346.78125 L 491.570312 345.769531 L 491.570312 343.742188 Z M 492.074219 343.238281 " fill-opacity="1" fill-rule="nonzero"/><path fill="#776153" d="M 391.332031 318.429688 L 399.429688 318.429688 L 405.507812 319.949219 L 404.492188 320.960938 L 400.949219 320.457031 L 398.925781 319.949219 L 398.925781 318.9375 L 391.332031 318.9375 Z M 391.332031 318.429688 " fill-opacity="1" fill-rule="nonzero"/><path fill="#725a4d" d="M 348.804688 407.023438 L 349.3125 409.050781 L 347.289062 413.605469 L 346.273438 413.605469 L 345.769531 411.074219 L 347.792969 408.039062 Z M 348.804688 407.023438 " fill-opacity="1" fill-rule="nonzero"/><path fill="#342821" d="M 331.59375 434.867188 L 333.113281 435.375 L 329.0625 439.425781 L 327.542969 439.425781 L 328.050781 436.894531 L 329.570312 435.375 Z M 331.59375 434.867188 " fill-opacity="1" fill-rule="nonzero"/><path fill="#937a68" d="M 510.300781 295.648438 L 513.84375 298.6875 L 517.894531 304.257812 L 516.375 304.257812 L 512.832031 300.207031 L 510.300781 296.664062 Z M 510.300781 295.648438 " fill-opacity="1" fill-rule="nonzero"/><path fill="#92bfb5" d="M 444.992188 362.476562 L 445.5 362.476562 L 445.5 367.539062 L 443.476562 367.03125 L 442.96875 366.523438 L 442.96875 363.992188 L 444.992188 363.488281 Z M 444.992188 362.476562 " fill-opacity="1" fill-rule="nonzero"/><path fill="#9d8472" d="M 461.195312 324.507812 L 465.75 326.023438 L 466.761719 329.0625 L 464.738281 328.050781 L 461.195312 325.519531 Z M 461.195312 324.507812 " fill-opacity="1" fill-rule="nonzero"/><path fill="#3e3129" d="M 385.761719 307.800781 L 388.800781 307.800781 L 389.304688 309.320312 L 391.332031 309.824219 L 385.761719 309.824219 Z M 385.761719 307.800781 " fill-opacity="1" fill-rule="nonzero"/><path fill="#92bfb5" d="M 484.988281 488.53125 L 486 489.542969 L 484.480469 492.582031 L 481.445312 492.074219 Z M 484.988281 488.53125 " fill-opacity="1" fill-rule="nonzero"/><path fill="#816759" d="M 419.175781 401.960938 L 423.730469 402.46875 L 422.210938 402.976562 L 422.210938 404.492188 L 420.695312 404.492188 L 420.1875 405.507812 L 419.175781 403.480469 Z M 419.175781 401.960938 " fill-opacity="1" fill-rule="nonzero"/><path fill="#97c2b9" d="M 286.03125 352.855469 L 287.042969 353.363281 L 285.019531 357.917969 L 282.992188 357.917969 L 284.007812 355.386719 Z M 286.03125 352.855469 " fill-opacity="1" fill-rule="nonzero"/><path fill="#816759" d="M 426.261719 409.050781 L 428.289062 409.050781 L 427.78125 412.59375 L 424.742188 410.570312 Z M 426.261719 409.050781 " fill-opacity="1" fill-rule="nonzero"/><path fill="#faf1e4" d="M 374.625 385.257812 L 375.636719 385.257812 L 375.132812 386.773438 L 371.082031 389.304688 L 369.5625 389.304688 L 369.5625 388.292969 Z M 374.625 385.257812 " fill-opacity="1" fill-rule="nonzero"/><path fill="#917867" d="M 492.582031 340.707031 L 495.617188 341.210938 L 498.148438 342.226562 L 498.148438 342.730469 L 493.59375 342.730469 L 492.074219 341.210938 Z M 492.582031 340.707031 " fill-opacity="1" fill-rule="nonzero"/><path fill="#6d5649" d="M 418.164062 279.449219 L 421.199219 280.460938 L 420.695312 282.488281 L 418.667969 282.488281 L 418.667969 281.476562 L 417.65625 280.96875 Z M 418.164062 279.449219 " fill-opacity="1" fill-rule="nonzero"/><path fill="#6c5549" d="M 329.0625 470.8125 L 331.59375 471.320312 L 331.59375 472.332031 L 330.582031 472.332031 L 330.582031 473.34375 L 327.542969 473.34375 Z M 329.0625 470.8125 " fill-opacity="1" fill-rule="nonzero"/><path fill="#83b7ad" d="M 535.613281 462.207031 L 536.117188 463.726562 L 533.082031 468.28125 L 532.070312 468.28125 L 533.082031 465.75 Z M 535.613281 462.207031 " fill-opacity="1" fill-rule="nonzero"/><path fill="#7a6254" d="M 449.550781 390.320312 L 455.625 390.824219 L 456.132812 391.835938 L 452.585938 392.34375 L 449.550781 390.824219 Z M 449.550781 390.320312 " fill-opacity="1" fill-rule="nonzero"/><path fill="#f5f9f8" d="M 530.042969 415.125 L 532.070312 416.136719 L 532.070312 418.164062 L 529.03125 417.65625 L 529.539062 415.632812 Z M 530.042969 415.125 " fill-opacity="1" fill-rule="nonzero"/></svg>