<svg xmlns="http://www.w3.org/2000/svg" xmlns:xlink="http://www.w3.org/1999/xlink" width="1024" zoomAndPan="magnify" viewBox="0 0 768 1535.999932" height="2048" preserveAspectRatio="xMidYMid meet" version="1.0"><defs><clipPath id="3e2a27bef8"><path d="M 0 384 L 768 384 L 768 1152 L 0 1152 Z M 0 384 " clip-rule="nonzero"/></clipPath></defs><g clip-path="url(#3e2a27bef8)"><rect x="-76.8" width="921.6" fill="#fdfefd" y="-153.599993" height="1843.199919" fill-opacity="1"/></g><path fill="#3c4e62" d="M 187.5 630.75 L 210.75 630.75 L 225.75 633.75 L 237 637.5 L 249 643.5 L 259.5 650.25 L 270 659.25 L 277.5 667.5 L 285 678.75 L 291 690.75 L 296.25 706.5 L 298.5 721.5 L 298.5 736.5 L 296.25 751.5 L 292.5 764.25 L 286.5 776.25 L 279.75 786.75 L 271.5 796.5 L 265.5 802.5 L 256.5 809.25 L 245.25 816 L 232.5 821.25 L 218.25 825 L 207 826.5 L 191.25 826.5 L 176.25 824.25 L 163.5 820.5 L 154.5 816.75 L 154.5 879 L 151.5 887.25 L 147 893.25 L 141.75 897.75 L 134.25 900.75 L 131.25 901.5 L 122.25 901.5 L 112.5 898.5 L 105 892.5 L 100.5 885.75 L 98.25 877.5 L 98.25 723 L 100.5 707.25 L 104.25 694.5 L 111 680.25 L 117 671.25 L 123 663.75 L 133.5 653.25 L 144 645.75 L 159.75 637.5 L 174 633 Z M 187.5 630.75 " fill-opacity="1" fill-rule="nonzero"/><path fill="#3c4e62" d="M 580.5 638.25 L 588.75 638.25 L 596.25 640.5 L 603 645 L 608.25 651 L 611.25 657 L 612.75 664.5 L 613.5 835.5 L 616.5 847.5 L 621 853.5 L 630.75 861.75 L 634.5 868.5 L 635.25 872.25 L 635.25 881.25 L 632.25 888.75 L 627.75 894.75 L 621 899.25 L 614.25 901.5 L 603.75 901.5 L 593.25 898.5 L 585 894 L 576.75 887.25 L 570.75 881.25 L 564.75 871.5 L 559.5 859.5 L 556.5 847.5 L 555 834.75 L 555 667.5 L 556.5 658.5 L 561 649.5 L 567 643.5 L 576 639 Z M 580.5 638.25 " fill-opacity="1" fill-rule="nonzero"/><path fill="#3c4e62" d="M 477.75 638.25 L 488.25 638.25 L 496.5 641.25 L 503.25 646.5 L 508.5 653.25 L 510.75 660 L 511.5 864.75 L 510 873 L 506.25 879.75 L 501.75 885 L 494.25 889.5 L 489 891 L 476.25 891 L 468 888 L 461.25 882.75 L 456.75 876 L 454.5 870 L 453.75 865.5 L 453.75 664.5 L 456 655.5 L 460.5 648 L 466.5 642.75 L 472.5 639.75 Z M 477.75 638.25 " fill-opacity="1" fill-rule="nonzero"/><path fill="#3c4e62" d="M 368.25 726.75 L 376.5 727.5 L 384 730.5 L 390 735 L 395.25 743.25 L 397.5 750 L 397.5 869.25 L 394.5 876.75 L 390 883.5 L 382.5 888.75 L 375.75 891 L 363 891 L 354.75 888 L 350.25 885 L 345 879.75 L 342 873.75 L 340.5 867 L 340.5 752.25 L 343.5 742.5 L 348 735.75 L 354.75 730.5 L 362.25 727.5 Z M 368.25 726.75 " fill-opacity="1" fill-rule="nonzero"/><path fill="#fcfefd" d="M 193.5 683.25 L 202.5 683.25 L 213 685.5 L 225 691.5 L 233.25 699 L 238.5 706.5 L 241.5 712.5 L 243.75 721.5 L 243.75 735.75 L 240 747.75 L 235.5 755.25 L 228.75 762.75 L 221.25 768 L 213 771.75 L 202.5 774 L 194.25 774 L 183.75 771.75 L 174.75 768 L 165.75 761.25 L 160.5 755.25 L 154.5 743.25 L 152.25 732 L 153 720 L 156 710.25 L 161.25 701.25 L 166.5 695.25 L 176.25 688.5 L 185.25 684.75 Z M 193.5 683.25 " fill-opacity="1" fill-rule="nonzero"/><path fill="#d9f4cd" d="M 367.5 651 L 377.25 651.75 L 384.75 654.75 L 392.25 661.5 L 396.75 668.25 L 399 674.25 L 399.75 683.25 L 397.5 690.75 L 393 699 L 386.25 705 L 378 708.75 L 375 709.5 L 364.5 709.5 L 356.25 706.5 L 348.75 701.25 L 343.5 693.75 L 341.25 687 L 340.5 678.75 L 342.75 669.75 L 345.75 663.75 L 351 657.75 L 358.5 653.25 Z M 367.5 651 " fill-opacity="1" fill-rule="nonzero"/></svg>